# xmcd
#
# Track frame offsets: 
#        150
#        13226
#        26518
#        37656
#        60979
#        77894
#        87756
#        99068
#        121113
#        135764
#        150395
#        167197
#        198284
#        216995
#        238416
#        257025
#
# Disc length: 3965 seconds
#
# Revision: 0
# Processed by: cddbd v1.5.2PL0 Copyright (c) Steve Scherf et al.
# Submitted via: ExactAudioCopy v0.99pb1
#
DISCID=bd0f7b10
DTITLE=Oscar Benton - The Best of Oscar Benton
DYEAR=2011
DGENRE=Blues
TTITLE0=That's Why I Keep On Asking
TTITLE1=Heart Aching Blues
TTITLE2=Have You Seen My Wife?
TTITLE3=Real Real Gone
TTITLE4=Back Door Man
TTITLE5=Can't Love Nobody Else
TTITLE6=I'm A Blue Blues Singer
TTITLE7=The Blues Is Gonna Wreck My Life
TTITLE8=Donkey Shot(instr.)
TTITLE9=OB Boogie(instr.)
TTITLE10=When I Ruled The World
TTITLE11=My Sweet Angel
TTITLE12=I Feel So Good
TTITLE13=It Ain't Nobody's Business
TTITLE14=Bensonhurst Blues
TTITLE15=I Got My Mojo Working
EXTD=
EXTT0=Oscar Benton- That's Why I Keep On Asking
EXTT1=
EXTT2=
EXTT3=
EXTT4=
EXTT5=
EXTT6=
EXTT7=
EXTT8=
EXTT9=
EXTT10=
EXTT11=
EXTT12=
EXTT13=
EXTT14=
EXTT15=
PLAYORDER=
